<svg width="170" height="42" viewBox="0 0 170 42" fill="none" xmlns="http://www.w3.org/2000/svg">
<path d="M10.3223 24.2064C10.3223 24.3583 10.383 24.4342 10.5046 24.4342C12.6617 24.4342 14.1732 24.3963 15.0391 24.3203C17.2569 24.1228 18.8748 23.2493 19.8926 21.6999C20.4698 20.8188 20.7585 19.7402 20.7585 18.4642C20.7585 13.9829 17.9026 11.7422 12.1908 11.7422H10.5501C10.3982 11.7422 10.3223 11.8181 10.3223 11.9701V24.2064ZM12.9655 9.60026C17.1886 9.60026 20.2268 10.2535 22.0801 11.5599C24.2524 13.0942 25.3385 15.1753 25.3385 17.8034C25.3385 20.8264 23.8574 23.1202 20.8952 24.6849C19.9837 25.171 19.0039 25.5508 17.9557 25.8242C19.566 26.599 21.0775 28.3459 22.4902 31.0651L26.5007 38.7669C26.5614 38.8885 26.6753 38.9492 26.8424 38.9492L30.2376 39.3138C30.3895 39.3138 30.4655 39.3974 30.4655 39.5645V40.7721C30.4655 40.924 30.3895 41 30.2376 41H22.9232C22.7561 41 22.6421 40.9392 22.5814 40.8177L18.571 32.4095C16.6417 28.3687 14.1504 26.3483 11.097 26.3483H10.5501C10.3982 26.3483 10.3223 26.4091 10.3223 26.5306V38.7214C10.3223 38.8581 10.3982 38.934 10.5501 38.9492L14.9707 39.3138C15.1378 39.329 15.2214 39.4125 15.2214 39.5645V40.7721C15.2214 40.924 15.1378 41 14.9707 41H1.95964C1.80773 41 1.73177 40.924 1.73177 40.7721V39.5645C1.73177 39.3974 1.80773 39.3138 1.95964 39.3138L5.92448 38.9492C6.07639 38.9492 6.15234 38.8733 6.15234 38.7214V11.8789C6.15234 11.727 6.07639 11.651 5.92448 11.651L1.95964 11.2637C1.80773 11.2637 1.73177 11.1877 1.73177 11.0358V9.82812C1.73177 9.67621 1.80773 9.60026 1.95964 9.60026H12.9655ZM46.3932 15.8893C46.3325 15.7982 46.2717 15.7526 46.2109 15.7526C46.1198 15.7526 46.059 15.7982 46.0286 15.8893L41.6309 27.0547C41.5397 27.2674 41.6081 27.3737 41.8359 27.3737H50.2669C50.51 27.3737 50.5935 27.2674 50.5176 27.0547L46.3932 15.8893ZM50.9277 41C50.7758 41 50.6999 40.924 50.6999 40.7721V39.5645C50.6999 39.3974 50.7758 39.3138 50.9277 39.3138L54.5736 38.9492C54.6647 38.9492 54.7255 38.9188 54.7559 38.8581C54.7862 38.7973 54.7862 38.7214 54.7559 38.6302L51.2923 29.4701C51.2316 29.3789 51.1708 29.3333 51.11 29.3333H40.9473C40.8713 29.3485 40.8105 29.3941 40.765 29.4701L37.0736 38.7214C36.9976 38.9188 37.0736 39.0252 37.3014 39.0404L40.8105 39.3138C40.9625 39.329 41.0384 39.4125 41.0384 39.5645V40.7721C41.0384 40.924 40.9625 41 40.8105 41H30.7161C30.5642 41 30.4883 40.924 30.4883 40.7721V39.5645C30.4883 39.3974 30.5642 39.3138 30.7161 39.3138L34.5443 38.9492C34.6202 38.934 34.681 38.8885 34.7266 38.8125L46.5983 8.93945C46.6591 8.84831 46.7198 8.80273 46.7806 8.80273H47.9427C48.0187 8.81792 48.0794 8.8635 48.125 8.93945L59.0397 38.7669C59.0701 38.8581 59.1385 38.9036 59.2448 38.9036L62.959 39.3138C63.0957 39.3138 63.1641 39.3974 63.1641 39.5645V40.7721C63.1641 40.924 63.0805 41 62.9134 41H50.9277ZM64.554 9.82812C64.554 9.67621 64.63 9.60026 64.7819 9.60026H73.0078C73.0838 9.61545 73.1445 9.64583 73.1901 9.69141L90.5078 32.5918V12.0612C90.5078 11.9093 90.4395 11.8333 90.3027 11.8333L86.862 11.4687C86.7101 11.4687 86.6341 11.3852 86.6341 11.2181V9.82812C86.6341 9.67621 86.7101 9.60026 86.862 9.60026H96.569C96.7209 9.60026 96.7969 9.67621 96.7969 9.82812V11.2181C96.7969 11.3852 96.7209 11.4687 96.569 11.4687L93.0599 11.8333C92.908 11.8333 92.832 11.9093 92.832 12.0612V41.1367C92.832 41.2886 92.7409 41.3646 92.5586 41.3646H91.6699C91.594 41.3494 91.518 41.3038 91.4421 41.2279L71.3216 14.5905V38.5163C71.3216 38.6834 71.3824 38.7669 71.5039 38.7669L74.9219 39.1315C75.0738 39.1315 75.1497 39.2075 75.1497 39.3594V40.7721C75.1497 40.924 75.0738 41 74.9219 41H65.2148C65.0477 41 64.9642 40.924 64.9642 40.7721V39.3594C64.9642 39.2075 65.0477 39.1315 65.2148 39.1315L68.7467 38.7669C68.9138 38.7669 68.9974 38.6834 68.9974 38.5163V12.0612C68.9974 11.9093 68.9138 11.8333 68.7467 11.8333L64.7819 11.4687C64.63 11.4687 64.554 11.3852 64.554 11.2181V9.82812ZM117.305 8.89388C118.93 8.89388 121.034 9.15213 123.617 9.66862C123.996 9.74457 124.604 9.85851 125.439 10.0104C125.591 10.0408 125.667 10.1168 125.667 10.2383V17.3021C125.667 17.454 125.591 17.5299 125.439 17.5299H123.617C123.465 17.5299 123.389 17.4692 123.389 17.3477L122.454 12.1068C122.454 12.0156 122.386 11.9397 122.249 11.8789C119.576 11.2865 117.821 10.9902 116.986 10.9902C112.899 10.9902 109.679 12.1827 107.324 14.5677C104.985 16.9375 103.815 20.1656 103.815 24.252C103.815 28.3839 104.947 31.9082 107.21 34.8249C109.671 37.9846 112.915 39.5645 116.94 39.5645C118.079 39.5645 119.637 39.3594 121.611 38.9492V29.5156C121.611 29.3637 121.535 29.2878 121.383 29.2878L117.396 28.9232C117.244 28.9232 117.168 28.8244 117.168 28.627V27.5104C117.168 27.3281 117.259 27.237 117.441 27.237H129.359C129.541 27.237 129.632 27.3281 129.632 27.5104V28.627C129.632 28.8244 129.556 28.9232 129.404 28.9232L125.895 29.2878C125.774 29.2878 125.698 29.3333 125.667 29.4245V40.2936C125.667 40.3848 125.591 40.4683 125.439 40.5443C122.189 41.2886 119.15 41.6608 116.325 41.6608C111.433 41.6608 107.393 40.1721 104.202 37.1947C100.936 34.1565 99.3034 30.2144 99.3034 25.3685C99.3034 22.1024 100.116 19.1934 101.742 16.6413C103.367 14.074 105.661 12.1068 108.623 10.7396C111.297 9.50911 114.191 8.89388 117.305 8.89388Z" fill="#F1972C"/>
<path d="M136.547 34.8437C137.063 37.9375 140.156 40 140.156 40H162.328C165.609 38.2279 165.938 37.4219 166.453 34.8437M136.031 20.9219C137.578 20.9219 165.938 20.9219 166.969 20.9219C168 20.9219 164.906 9.57812 151.5 9.57812C138.094 9.57812 134.484 20.9219 136.031 20.9219Z" stroke="#F1972C" stroke-width="2.0625" stroke-linecap="round"/>
<path d="M168 29.1719C168 28.6563 135 28.6563 135 29.1719V33.8125C135 34.3281 168 34.3281 168 33.8125V29.1719Z" stroke="#7B3217" stroke-width="2.0625" stroke-linecap="round"/>
<path d="M136.031 25.0469C140.672 20.9219 141.703 26.0781 145.312 26.0781C148.922 26.0781 148.406 23.5 151.5 23.5C154.594 23.5 154.078 26.0781 157.687 26.0781C160.781 26.0781 160.781 23.5 163.875 23.5C163.875 23.5 164.906 23.5 166.969 25.0469" stroke="#FFB84D" stroke-width="2.0625" stroke-linecap="round"/>
<circle cx="144.281" cy="14.7344" r="1.03125" fill="black"/>
<circle cx="158.719" cy="14.7344" r="1.03125" fill="black"/>
<circle cx="151.5" cy="15.7656" r="1.03125" fill="black"/>
</svg>
