<svg width="65" height="60" viewBox="0 0 65 60" fill="none" xmlns="http://www.w3.org/2000/svg">
<path d="M5.10161 48.5085C6.05077 54.2034 11.7457 58 11.7457 58H52.5592C58.5991 54.738 59.2033 53.2542 60.1525 48.5085M4.15246 22.8814C6.99992 22.8814 59.2033 22.8814 61.1016 22.8814C62.9999 22.8814 57.3049 2.00001 32.627 2.00001C7.94898 2.00001 1.305 22.8814 4.15246 22.8814Z" stroke="#D06A31" stroke-width="3.68939" stroke-linecap="round"/>
<path d="M62.9999 38.0678C62.9999 37.1187 2.25415 37.1187 2.25415 38.0678V46.6102C2.25415 47.5593 62.9999 47.5593 62.9999 46.6102V38.0678Z" stroke="#7B3217" stroke-width="3.68939" stroke-linecap="round"/>
<path d="M4.15245 30.4746C12.6948 22.8814 14.5931 32.3729 21.2372 32.3729C27.8813 32.3729 26.9321 27.6271 32.627 27.6271C38.3219 27.6271 37.3728 32.3729 44.0169 32.3729C49.7118 32.3729 49.7118 27.6271 55.4067 27.6271C55.4067 27.6271 57.305 27.6271 61.1016 30.4746" stroke="#F4A540" stroke-width="3.68939" stroke-linecap="round"/>
<circle cx="19.3389" cy="11.4915" r="1.89831" fill="black"/>
<circle cx="45.9152" cy="11.4915" r="1.89831" fill="black"/>
<circle cx="32.627" cy="13.3899" r="1.89831" fill="black"/>
</svg>
